<svg xmlns="http://www.w3.org/2000/svg" viewBox="0 0 658.93 162.53" xmlns:v="https://vecta.io/nano"><path d="M81.23 0a81.23 81.23 0 1 0 81.23 81.23A81.24 81.24 0 0 0 81.23 0zm0 142.77a61.54 61.54 0 1 1 61.54-61.54 61.6 61.6 0 0 1-61.54 61.54z" fill="#f0f1f2"/><path d="M71.38 93.1a14.75 14.75 0 0 0 19.7 0V69.5a14.72 14.72 0 0 0-19.7 0zm9.85-53.64a41.76 41.76 0 0 0-29.56 12.26l13.9 13.92a22.14 22.14 0 0 1 31.31 0l13.92-13.92a41.74 41.74 0 0 0-29.58-12.26zM96.9 97a22.13 22.13 0 0 1-31.31 0l-13.9 13.88a41.8 41.8 0 0 0 59.14 0zm-15.7 65.53a20.88 20.88 0 0 0-14.38-21.42h-.08a61.62 61.62 0 0 1-46-49.94h40.8a21.26 21.26 0 0 1 0-19.7H20.7a61.37 61.37 0 0 1 92.43-42.78h0a19.64 19.64 0 0 0 25.6-4.77A81.23 81.23 0 1 0 81.2 162.53z" fill="#ffbb17"/><path d="M207.87 55.28v35a13.9 13.9 0 0 1-6.54 0v-35h-4.1a5.2 5.2 0 0 1-.39-2.13 5.78 5.78 0 0 1 .39-2.2h4.1v-4.73c0-7.17 3-11.27 11-11.27a26.08 26.08 0 0 1 6.85.86 7.2 7.2 0 0 1 .32 2 7.11 7.11 0 0 1-.32 2 18.55 18.55 0 0 0-4.73-.63c-5.12 0-6.62 2.2-6.62 6.94V51h11.35a5.66 5.66 0 0 1 .4 2.2 5.5 5.5 0 0 1-.4 2.13zm25.47.8s4.73-5.36 14-5.36a8.11 8.11 0 0 1 .31 2.29 7.75 7.75 0 0 1-.31 2.2 16.39 16.39 0 0 0-14 7.18v27.9a16.4 16.4 0 0 1-3.24.39 15.61 15.61 0 0 1-3.31-.39V51.34a15.61 15.61 0 0 1 3.31-.34 15.38 15.38 0 0 1 3.24.39zm20.4 7.17c0-8 4.26-12.53 15.84-12.53 11.83 0 15.53 4.57 15.53 12.53v9a102.66 102.66 0 0 1-12.45.63H260.3v5.52c0 5.6 2.45 8.2 10.4 8.2 8.27 0 13.24-2.75 13.24-2.75a5 5 0 0 1 .47 2.2 4.87 4.87 0 0 1-.47 2.13s-4.5 2.76-13.24 2.76c-12.38 0-16.95-4.57-16.95-12.53zm25.15 5.28v-5.28c0-5.6-2.2-8.2-9.3-8.2s-9.3 2.6-9.3 8.2v5.28zm14.98-5.28c0-8 4.25-12.53 15.84-12.53 11.82 0 15.53 4.57 15.53 12.53v9a102.74 102.74 0 0 1-12.46.63h-12.37v5.52c0 5.6 2.44 8.2 10.4 8.2 8.28 0 13.24-2.75 13.24-2.75a4.87 4.87 0 0 1 .48 2.2 4.79 4.79 0 0 1-.48 2.13s-4.5 2.76-13.24 2.76c-12.37 0-16.94-4.57-16.94-12.53zM319 68.52v-5.28c0-5.6-2.2-8.2-9.3-8.2s-9.3 2.6-9.3 8.2v5.28zm28.08 17.82a6.24 6.24 0 0 1 .32 2 5.52 5.52 0 0 1-.32 1.89 11.67 11.67 0 0 1-4.1.71c-5.9 0-8.1-3.23-8.1-8.83V35.58a13.56 13.56 0 0 1 6.54 0v46.5c0 3.07.94 4.5 3.7 4.5a14.78 14.78 0 0 0 1.97-.23zm30.92.8s-4.73 3.78-13.63 3.78c-7.88 0-10.88-3.86-10.88-10.64V79.1c0-6.3 4-9.7 14.2-10.8L378 67.2v-4.4c0-5.2-2.2-7.72-8.9-7.72-6.54 0-8.67 2.44-8.67 7.56v1a13.92 13.92 0 0 1-3.08.39 14.14 14.14 0 0 1-3.15-.39v-1c0-7.56 3.47-11.9 14.9-11.9 11.27 0 15.37 4.34 15.37 12.06v27.5a15.34 15.34 0 0 1-3.23.39 14.43 14.43 0 0 1-3.24-.39zm-9.22-14.66c-6.62.7-8.75 2.9-8.75 6.62v1.18c0 4.26 1.58 6.3 6.7 6.3 8.12 0 11.27-3.86 11.27-3.86V71.36zm32.07-17.97s4.65-3.78 13.32-3.78S426 55.28 426 63.24v27a15.61 15.61 0 0 1-3.31.39 15.22 15.22 0 0 1-3.23-.39v-27c0-5.6-1.74-8.2-7.4-8.2-8.12 0-11.2 3.86-11.2 3.86v31.37a16.4 16.4 0 0 1-3.24.39 15.61 15.61 0 0 1-3.31-.39V51.34a15.61 15.61 0 0 1 3.31-.39 15.38 15.38 0 0 1 3.24.39zm34.6 8.74c0-8 4.18-12.53 15.45-12.53s14.9 4.57 14.9 12.53v1a12.77 12.77 0 0 1-3 .39 12.39 12.39 0 0 1-2.91-.39v-1c0-5.6-2.13-8.2-9-8.2s-8.9 2.6-8.9 8.2v15.14c0 5.6 2.37 8.2 10 8.2 7.9 0 12.6-2.75 12.6-2.75a4.87 4.87 0 0 1 .48 2.2 4.79 4.79 0 0 1-.48 2.13s-4.25 2.76-12.6 2.76c-12.06 0-16.55-4.57-16.55-12.53zm38.47 0c0-8 4.26-12.53 15.84-12.53 11.83 0 15.53 4.57 15.53 12.53v9a102.66 102.66 0 0 1-12.45.63h-12.38v5.52c0 5.6 2.45 8.2 10.4 8.2 8.27 0 13.24-2.75 13.24-2.75a5 5 0 0 1 .47 2.2 4.87 4.87 0 0 1-.47 2.13s-4.5 2.76-13.24 2.76c-12.38 0-16.95-4.57-16.95-12.53zm25.14 5.28v-5.28c0-5.6-2.2-8.2-9.3-8.2s-9.3 2.6-9.3 8.2v5.28zm22.4-14.02s4.65-3.78 13.24-3.78 11.67 4.57 11.67 12.53v27a15.61 15.61 0 0 1-3.31.39 15.22 15.22 0 0 1-3.23-.39v-27c0-5.6-1.74-8.2-7.26-8.2-8 0-11.1 3.86-11.1 3.86v31.37a16.24 16.24 0 0 1-3.23.39 15.61 15.61 0 0 1-3.31-.39v-54.7a15.24 15.24 0 0 1 3.31-.4 15 15 0 0 1 3.23.4zm59.45 32.63s-4.65 3.78-13.16 3.78S556 86.34 556 78.38v-27a15.61 15.61 0 0 1 3.31-.39 15.22 15.22 0 0 1 3.23.39v27c0 5.6 1.74 8.2 7.25 8.2 8 0 11.12-3.86 11.12-3.86V51.34a16.24 16.24 0 0 1 3.23-.39 15.61 15.61 0 0 1 3.31.39v38.94a15.61 15.61 0 0 1-3.31.39 15.22 15.22 0 0 1-3.23-.39zm22.7-32.63s4.65-3.78 13.32-3.78 11.82 4.57 11.82 12.53v27a13.9 13.9 0 0 1-6.54 0v-27c0-5.6-1.73-8.2-7.4-8.2-8.12 0-11.2 3.86-11.2 3.86v31.37a16.37 16.37 0 0 1-3.23.39 15.49 15.49 0 0 1-3.31-.39V51.34a13.9 13.9 0 0 1 6.54 0zm43.82.94v24.2c0 4.73 1.65 6.93 6.78 6.93a14.36 14.36 0 0 0 4.33-.78 6.19 6.19 0 0 1 0 3.93 20.9 20.9 0 0 1-6.46 1.19C644 90.9 641 86.8 641 79.64v-24.2h-4.1a5.56 5.56 0 0 1-.4-2.13 5.66 5.66 0 0 1 .4-2.2h4.4l.63-7.65a10 10 0 0 1 5.52 0v7.65h11.1a5.66 5.66 0 0 1 .4 2.2 5.56 5.56 0 0 1-.4 2.13zm-449.55 55.33a10.44 10.44 0 0 1 3.19-1.22 17.43 17.43 0 0 1 3.8-.4 7.55 7.55 0 0 1 3 .5 4.17 4.17 0 0 1 1.73 1.32 4.39 4.39 0 0 1 .79 1.78 9.2 9.2 0 0 1 .2 1.94l-.1 4.2c-.1 1.36-.1 2.67-.1 3.9l.1 2.52a12.68 12.68 0 0 0 .4 2.2h-2.12L208 125h-.18a6.52 6.52 0 0 1-.81 1 5.06 5.06 0 0 1-1.17.86 6.68 6.68 0 0 1-1.58.63 7.58 7.58 0 0 1-2.06.26 6 6 0 0 1-2.14-.37 4.9 4.9 0 0 1-1.71-1 4.7 4.7 0 0 1-1.13-1.6 5.19 5.19 0 0 1-.42-2.13 5 5 0 0 1 .65-2.64 4.67 4.67 0 0 1 1.82-1.7 9.28 9.28 0 0 1 2.81-.89 21.26 21.26 0 0 1 3.62-.27h1a6.78 6.78 0 0 1 1 .07l.1-2a3.85 3.85 0 0 0-.79-2.77 4.05 4.05 0 0 0-2.88-.79 10.31 10.31 0 0 0-1.31.09 15.64 15.64 0 0 0-1.44.26 12.15 12.15 0 0 0-1.41.41 7.08 7.08 0 0 0-1.17.54zM203 125.2a5.88 5.88 0 0 0 1.8-.26 5.1 5.1 0 0 0 1.36-.69 4 4 0 0 0 1-.92 4.08 4.08 0 0 0 .56-1v-3l-1-.05h-1a17.09 17.09 0 0 0-2.17.13 6.72 6.72 0 0 0-1.88.47 3.21 3.21 0 0 0-1.29.93 2.27 2.27 0 0 0-.49 1.49 2.67 2.67 0 0 0 .9 2.08 3.32 3.32 0 0 0 2.21.82zm16.22-2.2a3 3 0 0 0 .43 1.8 1.49 1.49 0 0 0 1.23.54 7.36 7.36 0 0 0 1-.07 5.92 5.92 0 0 0 1.22-.33l.32 2.27a5.93 5.93 0 0 1-1.6.47 10.49 10.49 0 0 1-1.78.18 3.88 3.88 0 0 1-2.66-.92 4 4 0 0 1-1-3.11v-21.6h2.88zm10.5 0a2.9 2.9 0 0 0 .44 1.8 1.46 1.46 0 0 0 1.22.54 7.36 7.36 0 0 0 1-.07 5.76 5.76 0 0 0 1.22-.33l.33 2.27a6.14 6.14 0 0 1-1.61.47 10.39 10.39 0 0 1-1.78.18 3.88 3.88 0 0 1-2.66-.92 4 4 0 0 1-1.05-3.11v-21.6h2.88zm17.5-13.56h2.88v19a8.78 8.78 0 0 1-1.15 5 4.16 4.16 0 0 1-3.67 1.66h-.54l-.54-.05v-2.45a3.45 3.45 0 0 0 1.6-.31 2.12 2.12 0 0 0 .92-1 4.74 4.74 0 0 0 .41-1.64 25.61 25.61 0 0 0 .1-2.32zm-.6-5.47a2 2 0 0 1 .56-1.43 1.87 1.87 0 0 1 1.42-.59 2 2 0 0 1 1.47.59 1.92 1.92 0 0 1 .62 1.43 1.73 1.73 0 0 1-.62 1.36 2.14 2.14 0 0 1-1.47.54 2 2 0 0 1-1.42-.54 1.78 1.78 0 0 1-.56-1.33zm8.63 14.47q0-4.57 2-7a7.21 7.21 0 0 1 5.85-2.43 8.59 8.59 0 0 1 3.51.66 6.41 6.41 0 0 1 2.47 1.91 8.16 8.16 0 0 1 1.44 3 15 15 0 0 1 .47 3.87c0 3-.68 5.38-2 7a7.18 7.18 0 0 1-5.85 2.43 8.49 8.49 0 0 1-3.51-.67 6.35 6.35 0 0 1-2.46-1.9 8.24 8.24 0 0 1-1.44-3 14.66 14.66 0 0 1-.48-3.87zm3 0a12.54 12.54 0 0 0 .27 2.63 6.94 6.94 0 0 0 .84 2.19 4.54 4.54 0 0 0 1.51 1.51 4.21 4.21 0 0 0 2.27.58q4.9 0 4.9-6.9a12.72 12.72 0 0 0-.27-2.67 6.72 6.72 0 0 0-.85-2.19 4.42 4.42 0 0 0-1.51-1.5 4.37 4.37 0 0 0-2.27-.56q-4.9-.03-4.9 6.92zm17.3-16.2h2.88v9h.15a5.65 5.65 0 0 1 2.1-1.62 6.76 6.76 0 0 1 2.79-.57 6.24 6.24 0 0 1 5.24 2.23q1.74 2.24 1.74 6.9c0 3.14-.76 5.53-2.3 7.16a8.44 8.44 0 0 1-6.48 2.45 14.22 14.22 0 0 1-3.65-.43 9.46 9.46 0 0 1-2.47-.94zm7.42 9.28a4.2 4.2 0 0 0-2.92 1 5.88 5.88 0 0 0-1.62 2.85v9.07a5.58 5.58 0 0 0 1.66.59 9.52 9.52 0 0 0 2 .2 4.85 4.85 0 0 0 3.91-1.73q1.46-1.73 1.46-5.4a13.73 13.73 0 0 0-.25-2.63 6.32 6.32 0 0 0-.8-2.08 4.11 4.11 0 0 0-1.38-1.37 4 4 0 0 0-2.04-.5zm19.94 11.02a2.19 2.19 0 0 0-.65-1.69 5.45 5.45 0 0 0-1.6-1l-2.1-.8a9.92 9.92 0 0 1-2.08-1 5.59 5.59 0 0 1-1.61-1.53 4.38 4.38 0 0 1-.64-2.52 4.64 4.64 0 0 1 1.47-3.8 6.33 6.33 0 0 1 4.11-1.2 12.11 12.11 0 0 1 5.54 1.15l-.68 2.37a12.45 12.45 0 0 0-2-.7 10.07 10.07 0 0 0-2.5-.31 3.9 3.9 0 0 0-2.33.55 2.17 2.17 0 0 0-.73 1.87 1.78 1.78 0 0 0 .64 1.46 7.18 7.18 0 0 0 1.61.93l2.08.8a8.71 8.71 0 0 1 2.09 1 5.65 5.65 0 0 1 1.6 1.63 4.63 4.63 0 0 1 .65 2.61 6.13 6.13 0 0 1-.38 2.16 4.29 4.29 0 0 1-1.17 1.73 5.61 5.61 0 0 1-2 1.13 8.15 8.15 0 0 1-2.75.42 13 13 0 0 1-3.49-.4 10.93 10.93 0 0 1-2.42-.93l.87-2.45a10.4 10.4 0 0 0 2.16.86 9.15 9.15 0 0 0 2.7.4 4.82 4.82 0 0 0 2.55-.61 2.37 2.37 0 0 0 1.05-2.15zm19.44-13.1v10.26a16.19 16.19 0 0 0 .16 2.46 5.34 5.34 0 0 0 .56 1.77 2.57 2.57 0 0 0 1.08 1.06 3.7 3.7 0 0 0 1.73.36 4.44 4.44 0 0 0 3.11-1.15 6.34 6.34 0 0 0 1-1.25 7.14 7.14 0 0 0 .74-1.49v-12h2.88v12.88l.1 2.7a18.73 18.73 0 0 0 .3 2.43h-2l-.72-2.85h-.18a7 7 0 0 1-2.23 2.34 6.22 6.22 0 0 1-3.56.94 8.82 8.82 0 0 1-2.54-.34 3.94 3.94 0 0 1-1.84-1.21 5.77 5.77 0 0 1-1.11-2.32 15.1 15.1 0 0 1-.38-3.69v-10.9zm28.37 18v-10.26a8.76 8.76 0 0 0-.81-4.23 3.12 3.12 0 0 0-3-1.43 4.81 4.81 0 0 0-3.15 1 5.45 5.45 0 0 0-1.75 2.58v12.3h-2.88v-18h2l.54 2.2h.14a6.52 6.52 0 0 1 2.32-1.89 7.67 7.67 0 0 1 3.48-.73 8.79 8.79 0 0 1 2.59.34 3.93 3.93 0 0 1 1.85 1.2 5.63 5.63 0 0 1 1.12 2.33 15.1 15.1 0 0 1 .38 3.69v10.87zm8.13-23.44a2 2 0 0 1 .56-1.43 1.89 1.89 0 0 1 1.42-.59 2.07 2.07 0 0 1 1.48.59 1.91 1.91 0 0 1 .61 1.43 1.72 1.72 0 0 1-.61 1.36 2.16 2.16 0 0 1-1.48.54 2 2 0 0 1-1.42-.54 1.82 1.82 0 0 1-.56-1.36zm.62 5.47h2.88v18h-2.88zm6.66-.03h2.8v-3.57l2.88-.82v4.4h4.9V112h-4.9v10a5.4 5.4 0 0 0 .47 2.64 1.7 1.7 0 0 0 1.59.78 5.52 5.52 0 0 0 1.58-.2 16.46 16.46 0 0 0 1.44-.52l.65 2.2a10.5 10.5 0 0 1-2.13.76 10.22 10.22 0 0 1-2.48.29 3.6 3.6 0 0 1-3.1-1.24 7.31 7.31 0 0 1-.9-4.16V112h-2.8zM393.46 126a8.16 8.16 0 0 1-2.72 1.36 11.6 11.6 0 0 1-3.47.51 8.71 8.71 0 0 1-3.57-.67 6.42 6.42 0 0 1-2.48-1.9 8.19 8.19 0 0 1-1.44-3 14.89 14.89 0 0 1-.47-3.88c0-3.08.7-5.42 2.05-7a7.28 7.28 0 0 1 5.87-2.41 12 12 0 0 1 2.45.26 5.5 5.5 0 0 1 2.2 1 5.57 5.57 0 0 1 1.58 2.14 9.18 9.18 0 0 1 .61 3.66 18.39 18.39 0 0 1-.21 2.63H382.3a11.23 11.23 0 0 0 .32 2.8 5.56 5.56 0 0 0 1 2.07 4.36 4.36 0 0 0 1.78 1.3 7.14 7.14 0 0 0 2.69.45 7.47 7.47 0 0 0 2.44-.43 5.3 5.3 0 0 0 1.84-1zm-6.2-14.48a5 5 0 0 0-3.4 1.12 5.54 5.54 0 0 0-1.53 3.82h8.92c0-1.83-.34-3.1-1-3.84a3.89 3.89 0 0 0-2.99-1.1zm25.17 9.72v3.33a16.85 16.85 0 0 0 .32 2.94h-1.94l-.72-2.56h-.1a5.78 5.78 0 0 1-2.1 2.05 6.11 6.11 0 0 1-3.21.83 6.31 6.31 0 0 1-5.34-2.27q-1.75-2.26-1.75-7.1c0-3.07.73-5.4 2.18-7a7.68 7.68 0 0 1 6-2.4 11.67 11.67 0 0 1 2.11.15 10 10 0 0 1 1.67.47v-7.5h2.88zm-7.27 4.1a4.29 4.29 0 0 0 2.92-.95 5.1 5.1 0 0 0 1.47-2.9v-8.93a3.89 3.89 0 0 0-1.47-.72 8.77 8.77 0 0 0-2.2-.22 4.86 4.86 0 0 0-3.89 1.64q-1.4 1.64-1.4 5.24a15.53 15.53 0 0 0 .23 2.73 6.39 6.39 0 0 0 .78 2.16 4 4 0 0 0 1.42 1.43 4.11 4.11 0 0 0 2.14.52z" fill="#88888c"/></svg>